<?xml version="1.0" encoding="UTF-8"?>
<svg version="1.1" viewBox="0 0 2048 2048" width="1280" height="1280" xmlns="http://www.w3.org/2000/svg">
<path transform="translate(458,1152)" d="m0 0h43l24 2 29 4 28 6 31 9 29 11 33 16 18 10 20 13 14 10 14 11 13 11 10 9 8 7 7 8 12 12 9 11 13 16 14 20 13 21 8 14 11 23 11 26 10 30 7 28 5 29 3 26 1 22v20l-2 35-5 33-6 27-7 24-10 28-9 20-13 26-12 20-10 15-14 19-9 11-10 11-7 8-22 22-11 9-14 12-18 13-17 11-17 10-27 14-23 10-22 8-28 8-28 6-26 4-21 2-21 1h-16l-34-2-29-4-28-6-25-7-23-8-24-10-30-15-17-10-18-12-15-11-16-13-20-18-20-20-7-8-10-12-10-13-12-17-13-21-12-22-11-23-10-26-8-25-7-29-5-30-3-33v-45l3-31 5-30 8-32 10-30 10-24 10-21 13-23 11-17 12-17 11-14 5-6h2l-7-8-21-21-6-10-2-6v-12l4-11 8-9 10-5 5-1h10l11 4 10 8 40 40 2 1v2l6 2 9-8 18-13 15-10 17-10h2l-3-10v-9l3-10 6-9 10-7 27-11 28-9 29-7 30-5 17-2z" fill="#475964"/>
<path transform="translate(1546,1152)" d="m0 0h42l34 3 30 5 25 6 26 8 22 8 24 11 22 11 24 15 9 8 6 12 1 8-3 13-4 6 2 4 14 12 8 7v2l4 2 10 10 7 8 9 10 5 6h3l7-8 14-14 10-6 7-2h10l10 3 9 7 6 10 2 6v12l-4 10-8 10-28 28 2 5 12 25 11 28 6 19 1 4 7-1h8l13 4 10 9 5 10 4 22 3 27 1 21v21l-2 35-5 33-6 27-7 24-10 28-9 20-8 16-9 17-13 21-13 18-11 14-11 13-12 13-20 20-11 9-14 12-18 13-17 11-17 10-27 14-23 10-22 8-28 8-28 6-26 4-21 2-21 1h-16l-34-2-29-4-28-6-25-7-23-8-24-10-16-8-21-11-21-13-18-13-14-11-13-11-15-14-18-18-7-8-10-12-10-13-12-17-13-21-12-22-11-23-10-26-8-25-7-29-5-30-3-31v-47l3-31 5-29 7-29 12-36 10-24 8-16 10-19 8-13 10-15 13-18 9-11 12-14 16-17 5-5h2l1-3 8-7 14-12 18-14 27-18 21-12 19-10 28-12 36-12 24-6 21-4 32-4z" fill="#5CFCA2"/>
<path transform="translate(401,59)" d="m0 0h30l34 3 28 5 27 7 28 10 18 8 16 8 18 10 22 15 13 10 13 11 10 9 22 22 9 11 11 14 13 19 12 20 14 28 10 26 8 26 6 27 4 33 1 21 1 47 3 29 6 28 9 26 11 23 12 19 10 13 9 10 67 67 11 15 7 15 5 19 1 9v10l-2 17-6 18-7 13-10 13-95 95-16 12-16 8-13 4-10 2h-25l-17-4-12-5-11-6-11-9-12-11-39-39-4-5-3-7-2-7 1-9 4-10 3-4-1-5-10-8-15-11-19-12-19-10-2 6-6 7-6 4-9 3h-12l-36-8-10-1h-72l-27-2-26-4-25-6-20-6-26-10-29-14-20-12-20-14-16-13-11-10-8-7-14-14-9-11-9-10-14-19-13-20-12-22-11-23-10-27-8-29-5-28-3-26-1-23 1-28 4-33 6-28 8-26 8-21 9-20 9-17 13-21 12-17 13-16 9-11 27-27 11-9 18-14 18-12 15-9 23-12 23-10 30-10 30-7 26-4z" fill="#FDF07C"/>
<path transform="translate(1511,64)" d="m0 0h112l11 4 8 7 6 12 6 25 9 41 2 7 28 10 24 11 7 4 4-1 18-11 15-10 17-11 14-8 6-2h14l12 6 12 11 60 60 7 10 4 10v8l-4 11-10 17-10 15-11 17-9 14 1 5 12 25 9 24 2 8 19 4 45 10 16 5 8 6 6 8 3 11v102l-2 12-5 8-5 5-4 3-16 5-63 14h-2l-3 11-6 16-9 21-6 12 1 5 12 18 16 25 11 17 3 7 1 5v7l-4 11-8 11-66 66-10 7-9 3h-11l-11-4-25-16-17-11-19-12-5 1-26 12-28 10-3 1-4 16-11 51-4 12-6 8-7 6-9 3-77 1h-24l-13-1-12-6-6-7-4-8-7-30-9-41-2-4-20-7-26-11-12-6-5 1-23 15-16 10-19 12-12 5h-12l-9-3-10-8-68-68-7-11-2-7v-9l4-11 10-16 13-20 10-15 7-11-1-5-12-25-10-27-3-6-35-8-37-8-12-6-6-7-4-9-1-4v-110l4-10 9-10 8-4 25-6 47-10 4-3 10-28 7-16 7-13-1-4-12-19-15-23-10-16-5-10-1-4v-9l4-11 6-8 30-30 6-7h2l2-4 29-29 11-7 7-2h10l11 4 16 10 46 30 6-2 23-11 24-9 9-3 12-53 5-21 5-10 9-8zm47 283-20 3-17 5-19 9-13 9-11 9-10 10-10 13-9 16-7 16-4 15-2 12-1 11 1 21 4 20 7 19 8 15 9 12 9 10 9 9 14 10 16 9 15 6 16 4 14 2h21l20-3 16-5 16-7 16-10 13-11 10-10 11-15 11-21 5-15 4-22v-27l-3-17-5-17-8-17-7-11-11-14-10-10-13-10-17-10-21-8-13-3-13-2z" fill="#9DE2FE"/>
<path transform="translate(468,1215)" d="m0 0h17l21 1 25 3 27 5 23 6 24 8 21 9 16 8 17 9 20 13 18 13 13 11 12 11 21 21 18 22 13 18 15 25 8 15 9 20 7 19 8 26 6 27 4 29 1 13v44l-3 28-5 26-5 20-11 33-9 20-11 22-13 21-12 17-11 14-12 14-8 9-8 7-10 10-11 9-14 11-27 18-25 14-27 12-22 8-34 9-30 5-31 3h-26l-31-3-29-5-24-6-30-10-21-9-21-10-17-10-18-12-16-12-14-12-13-12-12-12-9-11-8-9-14-19-11-17-9-16-10-19-8-19-8-22-7-25-6-31-3-26-1-19v-16l2-30 5-32 7-28 9-27 10-23 13-26 14-22 8-11 11-14 2-2 5 1 41 41v5l-8 10-10 15-12 21-12 27-10 31-5 24-3 22-1 14v26l2 23 5 28 6 22 8 22 10 22 10 18 9 14 10 14 11 13 14 15 7 7 8 7 15 12 21 14 15 9 21 10 26 10 21 6 26 5 16 2 14 1h21l31-3 26-5 28-8 25-10 20-10 23-14 13-10 10-8 11-10 8-7 14-15 13-17 11-16 10-17 8-16 7-16 9-26 7-31 3-25v-45l-3-26-6-27-10-30-9-21-12-22-12-18-9-12-12-14-13-14-8-7-14-12-18-13-19-12-15-8-18-8-25-9-23-6-24-4-27-2h-17l-20 1-32 5-13 4-8 5-6 7-3 7-1 5v8l3 9 4 6 9 8 11 4h7l20-4 15-2 21-1 20 1 31 5 24 7 20 8 21 11 15 10 14 11 13 12 11 11 9 11 11 15 9 15 11 23 9 27 5 25 2 17v34l-4 27-5 20-8 22-11 23-11 17-12 16-11 12-14 14-14 11-13 9-15 9-21 10-27 9-18 4-19 3-13 1h-16l-19-2-22-4-19-5-22-8-17-8-21-13-17-13-16-15-10-11-13-17-12-19-11-22-7-19-6-23-4-24v-44l4-25 5-20 8-21 10-21 12-19 4-5 5 1 41 41v6l-11 21-6 16-5 22-2 16v21l3 21 4 15 5 14 8 16 7 12 9 12 11 12 7 7 15 11 15 9 17 8 18 6 21 4 11 1h16l21-3 20-5 16-6 17-9 12-8 11-9 12-11 11-14 10-15 10-21 6-19 4-22 1-12v-14l-3-21-4-17-8-21-8-15-9-13-11-13-12-12-16-12-18-10-12-5-8-2-9 1-12 6-7 7-4 9-1 10 2 9 6 10 8 6 18 10 11 8 9 8 8 10 8 14 5 12 4 20v22l-4 18-8 18-10 14-14 14-14 9-16 7-16 4-8 1h-13l-20-4-13-5-12-6-13-10-8-8-8-11-8-15-5-15-2-10v-27l5-19 4-8 5 3 41 41v2h2v2h2v2l4 2 4 5 8 7 10 6 7 2h7l10-3 9-6 6-9 3-9v-9l-5-12-11-12-258-258-5-7 14-11 16-12 22-14 9-5h2l1-3 2 5 7 7 12 6h14l40-15 24-7 30-6 26-3z" fill="#FCABA9"/>
<path transform="translate(1511,64)" d="m0 0h112l11 4 8 7 6 12 6 25 9 41 2 7 28 10 24 11 7 4 4-1 18-11 15-10 17-11 14-8 6-2h14l12 6 12 11 60 60 7 10 4 10v8l-4 11-10 17-10 15-11 17-9 14 1 5 12 25 9 24 2 8 19 4 45 10 16 5 8 6 6 8 3 11v102l-2 12-5 8-5 5-4 3-16 5-63 14h-2l-3 11-6 16-9 21-6 12 1 5 12 18 16 25 11 17 3 7 1 5v7l-4 11-8 11-66 66-10 7-9 3h-11l-11-4-25-16-17-11-19-12-5 1-26 12-28 10-3 1-4 16-11 51-4 12-6 8-7 6-9 3-77 1h-24l-13-1-12-6-6-7-4-8-7-30-9-41-2-4-20-7-26-11-12-6-5 1-23 15-16 10-19 12-12 5h-12l-9-3-10-8-68-68-7-11-2-7v-9l4-11 10-16 13-20 10-15 7-11-1-5-12-25-10-27-3-6-35-8-37-8-12-6-6-7-4-9-1-4v-110l4-10 9-10 8-4 25-6 47-10 4-3 10-28 7-16 7-13-1-4-12-19-15-23-10-16-5-10-1-4v-9l4-11 6-8 30-30 6-7h2l2-4 29-29 11-7 7-2h10l11 4 16 10 46 30 6-2 23-11 24-9 9-3 12-53 5-21 5-10 9-8zm34 64-2 6-11 48-4 16-6 10-8 6-18 6-22 7-17 7-22 11-12 7-10 3h-9l-11-4-23-15-25-16-8-5-4 1-9 9-7 8-14 14 2 6 12 18 14 22 8 13 4 10v10l-4 12-12 21-9 19-9 27-5 16-5 10-7 6-9 4-44 10-23 5v47l6 2 43 9 22 6 9 6 6 8 15 45 14 29 10 18 2 7v11l-5 12-12 19-15 23-7 11 1 7 8 7 22 22 5-2 19-12 25-16 14-8 7-2 12 1 17 8 15 8 23 10 28 9 12 4 8 5 6 7 5 15 12 55 3 5h45l2-5 12-54 5-16 7-8 12-6 29-9 16-6 23-11 16-9 6-2h16l14 7 17 11 33 21 4-1 7-8 20-20 3-2-1-5-14-22-18-27-6-12-1-4v-10l4-12 12-21 10-22 7-20 7-23 6-9 8-6 16-5 47-10 10-3v-46l-3-2-60-13-12-5-8-7-6-12-8-26-8-21-13-25-7-12-2-7v-10l3-10 10-16 15-23 11-17 1-3-7-8-24-24-6 1-47 30-14 7-5 1h-8l-13-5-18-10-21-10-30-10-16-5-9-6-6-9-4-12-13-59-1-1z" fill="#475964"/>
<path transform="translate(401,59)" d="m0 0h30l34 3 28 5 27 7 28 10 18 8 16 8 18 10 22 15 13 10 13 11 10 9 22 22 9 11 11 14 13 19 12 20 14 28 10 26 8 26 6 27 4 33 1 21 1 47 3 29 6 28 9 26 11 23 12 19 10 13 9 10 67 67 11 15 7 15 5 19 1 9v10l-2 17-6 18-7 13-10 13-95 95-16 12-16 8-13 4-10 2h-25l-17-4-12-5-11-6-11-9-12-11-39-39-4-5-3-7-2-7 1-9 4-10 9-10 153-153-1-5-10-12-13-18-13-23-8-17-6-13-9-27-6-25-4-25-2-30-1-57-3-24-5-24-8-26-8-20-8-16-10-18-11-16-10-13-9-10-7-8-15-15-22-18-15-10-15-9-21-11-20-8-26-8-23-5-20-3-14-1h-39l-18 2-26 5-24 7-21 8-25 12-17 10-16 11-14 11-14 12-17 17-9 11-11 14-14 21-12 22-11 26-8 26-6 29-2 16-1 16v23l2 23 5 29 7 26 8 21 13 27 14 23 14 19 10 11 7 8 15 15 2 1v2l4 2 12 10 17 12 15 9 23 12 20 8 21 7 22 5 24 4 21 2h19l18-1h28l27 3 25 5 15 5 8 5 7 8 4 9 1 10-2 9-3 6-6 7-6 4-9 3h-12l-36-8-10-1h-72l-27-2-26-4-25-6-20-6-26-10-29-14-20-12-20-14-16-13-11-10-8-7-14-14-9-11-9-10-14-19-13-20-12-22-11-23-10-27-8-29-5-28-3-26-1-23 1-28 4-33 6-28 8-26 8-21 9-20 9-17 13-21 12-17 13-16 9-11 27-27 11-9 18-14 18-12 15-9 23-12 23-10 30-10 30-7 26-4z" fill="#475964"/>
<path transform="translate(1546,1152)" d="m0 0h42l34 3 30 5 25 6 26 8 22 8 24 11 22 11 24 15 9 8 6 12 1 8-3 13-6 10-9 6-12 4h-7l-12-5-20-12-23-12-15-7-24-9-20-6-27-6-35-5-13-1h-39l-38 5-24 5-25 7-25 9-33 16-21 12-10 7-15 11-22 18-29 29-8 10-11 14-13 19-11 18-11 21-11 26-9 27-6 25-5 32-2 23v31l2 24 4 28 5 23 8 26 8 21 12 26 12 21 7 11 12 17 9 11 12 14 15 16 20 18 13 10 17 12 19 12 27 14 19 8 19 7 28 8 25 5 22 3 11 1h47l28-3 24-4 28-7 23-8 26-11 21-11 20-12 17-12 16-13 11-9 27-27 22-28 10-15 9-15 12-22 11-25 11-33 6-25 4-26 2-19v-50l-2-21-3-19v-16l6-12 10-9 11-3h8l13 4 10 9 5 10 4 22 3 27 1 21v21l-2 35-5 33-6 27-7 24-10 28-9 20-8 16-9 17-13 21-13 18-11 14-11 13-12 13-20 20-11 9-14 12-18 13-17 11-17 10-27 14-23 10-22 8-28 8-28 6-26 4-21 2-21 1h-16l-34-2-29-4-28-6-25-7-23-8-24-10-16-8-21-11-21-13-18-13-14-11-13-11-15-14-18-18-7-8-10-12-10-13-12-17-13-21-12-22-11-23-10-26-8-25-7-29-5-30-3-31v-47l3-31 5-29 7-29 12-36 10-24 8-16 10-19 8-13 10-15 13-18 9-11 12-14 16-17 5-5h2l1-3 8-7 14-12 18-14 27-18 21-12 19-10 28-12 36-12 24-6 21-4 32-4z" fill="#475964"/>
<path transform="translate(1557,283)" d="m0 0h22l18 2 25 5 24 9 25 13 17 12 14 12 17 17 13 18 9 15 10 21 6 18 5 22 2 15v35l-3 21-6 23-8 20-12 23-8 11-10 13-15 16-13 11-13 9-15 9-19 9-24 8-25 5-9 1h-32l-21-3-23-6-19-7-23-12-17-12-10-8-13-12-10-11-13-18-10-17-9-20-6-19-5-25-1-8v-36l4-26 6-21 6-15 10-20 8-12 12-16 23-23 18-13 15-9 23-11 26-8 16-3zm1 64-20 3-17 5-19 9-13 9-11 9-10 10-10 13-9 16-7 16-4 15-2 12-1 11 1 21 4 20 7 19 8 15 9 12 9 10 9 9 14 10 16 9 15 6 16 4 14 2h21l20-3 16-5 16-7 16-10 13-11 10-10 11-15 11-21 5-15 4-22v-27l-3-17-5-17-8-17-7-11-11-14-10-10-13-10-17-10-21-8-13-3-13-2z" fill="#475964"/>
<path transform="translate(1904,1297)" d="m0 0h10l10 3 9 7 6 10 2 6v12l-4 10-8 10-28 28-1 3-8 7-18 18-8 7-17 17-7 8-4 4h-2v2l-8 7-237 237-10 7-8 3h-9l-13-5-12-11-164-164-7-10-3-8v-11l4-11 8-9 12-6 10-1 11 3 11 8 110 110 6 5 6 7 8 7 12 12 3 4 4-1 317-317 10-6z" fill="#475964"/>
<path transform="translate(1e3 64)" d="m0 0h49l41 2 36 3 40 5 24 4 10 4 8 7 6 11 1 5v9l-3 9-6 9-10 7-7 2h-14l-42-6-28-3-51-3h-65l-48 3-44 5-43 7-47 10h-13l-10-4-6-5-6-10-3-10 1-10 4-10 6-7 8-5 13-4 38-8 47-8 44-5 42-3z" fill="#475964"/>
<path transform="translate(504,379)" d="m0 0 12 1 10 5 8 9 5 12 8 26 11 27 13 28 12 22 12 19 12 18 12 16 10 13 13 15 24 26 7 11 2 8-1 10-4 9-7 8-7 5-6 2h-14l-10-4-10-8-14-15v-2h-2l-9-11-10-11-20-26-14-20-14-22-14-24-8-15-13-28-4-10h-3l-38 38-8 7-8 8-10 6-7 2h-7l-10-3-8-6-7-8-3-8-1-10 3-10 4-6 9-10 27-27h2l2-4h2l2-4h2l2-4h2l2-4h2l2-4h2l2-4h2l2-4h2l2-4h2l2-4 23-23 9-6z" fill="#475964"/>
<path transform="translate(1933,832)" d="m0 0h10l10 3 9 7 6 10 4 18 6 45 4 45 1 16 1 51-1 44-2 30-4 40-7 49-4 10-9 10-7 4-4 1h-16l-8-3-10-9-5-10-1-4v-10l7-50 3-31 2-30 1-33v-24l-1-32-3-42-4-35-5-33v-11l4-10 6-8 9-6z" fill="#485964"/>
<path transform="translate(859,1906)" d="m0 0 15 1 45 6 30 3 32 2 30 1h26l33-1 40-3 35-4 36-5h7l10 3 8 6 6 7 3 7 1 5v9l-4 11-9 10-8 4-13 3-42 6-41 4-31 2-33 1h-23l-35-1-41-3-44-5-34-5-11-4-7-6-6-10-2-6v-12l4-10 5-7 9-6z" fill="#475964"/>
<path transform="translate(121,770)" d="m0 0 12 2 8 4 5 4 6 9 2 6v14l-10 47-7 43-5 42-3 48v65l2 39 2 27-1 9-6 11-9 8-8 3h-17l-10-5-5-4-6-10-3-14-3-39-1-22v-68l2-36 4-42 7-49 8-42 7-28 4-8 6-7 12-6z" fill="#475964"/>
<path transform="translate(823,684)" d="m0 0 4 1 21 21 6 10 2 7v8l-4 13-6 8-86 86-9 7-8 4-4 1h-13l-9-4-8-6-12-11-8-9 1-4 8-7z" fill="#D2D8D6"/>
</svg>
