<?xml version="1.0" encoding="UTF-8"?>
<!-- Generator: visioncortex VTracer 0.6.2 -->
<svg version="1.1" xmlns="http://www.w3.org/2000/svg" width="1280" height="559">
<path d="M0 0 C3.2453908 2.29899854 6.28682475 4.74611636 9.30859375 7.328125 C9.87441162 7.81047607 10.44022949 8.29282715 11.02319336 8.78979492 C20.47430474 16.91944972 27.04543343 25.0868924 32.93359375 36.078125 C33.35898438 36.8515625 33.784375 37.625 34.22265625 38.421875 C46.56187695 61.73770307 47.01293198 90.81974555 39.43286133 115.68310547 C34.59800958 130.92680935 24.51057317 143.5119609 10.30859375 151.140625 C-8.631056 160.0843485 -29.86300766 162.20724592 -50.06640625 156.078125 C-52.07599118 155.09752906 -54.07663073 154.09831781 -56.06640625 153.078125 C-57.80178682 152.49130556 -59.55194766 151.94565792 -61.31640625 151.453125 C-65.89973958 150.16145833 -65.89973958 150.16145833 -68.06640625 149.078125 C-68.06196503 149.76415298 -68.0575238 150.45018097 -68.052948 151.15699768 C-68.00862675 158.31110548 -67.97850322 165.46517412 -67.95654297 172.61938477 C-67.94763084 175.28775757 -67.93286174 177.95591502 -67.91552734 180.62426758 C-67.89120923 184.46438305 -67.87990693 188.3043527 -67.87109375 192.14453125 C-67.86077118 193.33333389 -67.85044861 194.52213654 -67.83981323 195.7469635 C-67.83806492 208.71662145 -67.83806492 208.71662145 -71.44140625 214.15234375 C-77.08992555 219.76012854 -83.04463879 222.69509953 -91.00390625 223.453125 C-92.36117089 223.36812459 -93.71605266 223.23917635 -95.06640625 223.078125 C-95.94425781 222.98402344 -96.82210937 222.88992188 -97.7265625 222.79296875 C-107.19419723 221.45161197 -113.05583525 218.01096802 -118.83984375 210.43359375 C-122.94244816 202.5550254 -122.34563859 193.96625246 -122.30932617 185.32446289 C-122.31040047 183.83723874 -122.31234133 182.35001499 -122.31507874 180.86279297 C-122.31990378 176.84469085 -122.31230293 172.82670069 -122.30212569 168.80861211 C-122.29331622 164.60104206 -122.29510313 160.39347522 -122.29548645 156.18589783 C-122.29455174 149.12903985 -122.28588999 142.07222505 -122.2722168 135.01538086 C-122.25645069 126.84798351 -122.25122026 118.68063326 -122.25195235 110.5132218 C-122.25256159 102.65580024 -122.24746839 94.79839405 -122.23916054 86.9409771 C-122.23562353 83.59528928 -122.23379671 80.24960691 -122.23326683 76.90391731 C-122.23226589 72.97309507 -122.2261898 69.0423127 -122.21610069 65.1115036 C-122.21316902 63.66545544 -122.21195166 62.21940269 -122.21252823 60.77335167 C-122.21301554 58.80792697 -122.20676991 56.84250396 -122.20011902 54.87709045 C-122.19760525 53.22377008 -122.19760525 53.22377008 -122.1950407 51.53704929 C-122.06640625 49.078125 -122.06640625 49.078125 -121.06640625 48.078125 C-120.94265625 46.221875 -120.94265625 46.221875 -120.81640625 44.328125 C-119.03095043 27.70763182 -108.39439442 13.01165729 -95.87890625 2.640625 C-85.47165548 -5.69346825 -75.8265478 -9.59256572 -63.06640625 -12.921875 C-62.43887451 -13.10218262 -61.81134277 -13.28249023 -61.16479492 -13.46826172 C-39.55780792 -18.13909149 -18.16427488 -11.38448821 0 0 Z M-61.06640625 45.078125 C-67.1346003 53.39214576 -68.34045972 58.2523099 -68.50390625 68.515625 C-68.54966797 69.65451172 -68.59542969 70.79339844 -68.64257812 71.96679688 C-68.77133799 81.76934131 -65.9887605 88.56741761 -59.56640625 95.953125 C-58.74140625 96.654375 -57.91640625 97.355625 -57.06640625 98.078125 C-55.64328125 99.3775 -55.64328125 99.3775 -54.19140625 100.703125 C-49.49074368 104.27562856 -45.07382579 106.62425405 -39.06640625 106.078125 C-39.06640625 106.408125 -39.06640625 106.738125 -39.06640625 107.078125 C-37.64984832 107.1053665 -36.2331358 107.12462967 -34.81640625 107.140625 C-34.0275 107.15222656 -33.23859375 107.16382813 -32.42578125 107.17578125 C-30.12715954 107.08063962 -28.23590407 106.84128906 -26.06640625 106.078125 C-25.73640625 105.418125 -25.40640625 104.758125 -25.06640625 104.078125 C-23.89078125 103.8615625 -23.89078125 103.8615625 -22.69140625 103.640625 C-19.81514904 103.02428417 -18.90255918 102.30083644 -17.06640625 100.078125 C-17.39640625 99.418125 -17.72640625 98.758125 -18.06640625 98.078125 C-17.16921875 97.7996875 -17.16921875 97.7996875 -16.25390625 97.515625 C-12.96658826 95.35538747 -12.41785938 92.72704845 -11.06640625 89.078125 C-10.73640625 89.078125 -10.40640625 89.078125 -10.06640625 89.078125 C-9.91921188 84.97434599 -9.83170658 80.87125953 -9.75390625 76.765625 C-9.69106445 75.04375977 -9.69106445 75.04375977 -9.62695312 73.28710938 C-9.47811716 62.77928999 -12.38347325 54.7336267 -19.00390625 46.515625 C-19.63167969 45.70996094 -20.25945312 44.90429688 -20.90625 44.07421875 C-23.51392435 41.66459562 -25.65944072 40.99739575 -29.06640625 40.078125 C-29.90042969 39.79710937 -30.73445313 39.51609375 -31.59375 39.2265625 C-42.27917851 35.7975271 -52.82044666 36.60311097 -61.06640625 45.078125 Z " fill="#7821FC" transform="translate(1066.06640625,170.921875)"/>
<path d="M0 0 C2.73693123 2.38044018 4.13327501 3.85739201 4.47460938 7.56420898 C5.46074236 32.86619899 5.46074236 32.86619899 -0.63671875 40.13671875 C-1.68279297 41.12091797 -1.68279297 41.12091797 -2.75 42.125 C-3.78060547 43.15560547 -3.78060547 43.15560547 -4.83203125 44.20703125 C-10.25317327 49.00303257 -15.76798943 50.70508334 -22.75 52.125 C-23.86890625 52.37894531 -24.9878125 52.63289063 -26.140625 52.89453125 C-31.53646934 54.1008709 -36.93001706 55.16508574 -42.38671875 56.0546875 C-48.83188273 57.11422845 -55.22575204 58.38208441 -61.625 59.6875 C-63.78888055 60.12719848 -65.95293762 60.56602929 -68.1171875 61.00390625 C-69.05675293 61.1954126 -69.99631836 61.38691895 -70.96435547 61.58422852 C-72.97682364 61.97490485 -75.0019403 62.30223868 -77.03173828 62.58959961 C-78.37727783 62.8546228 -78.37727783 62.8546228 -79.75 63.125 C-80.98396041 64.8392289 -80.98396041 64.8392289 -81.75 67.125 C-82.430625 68.135625 -83.11125 69.14625 -83.8125 70.1875 C-87.82705465 76.27408285 -87.10256007 82.19312963 -85.75 89.125 C-83.41836622 89.79758667 -81.0847961 90.46347444 -78.75 91.125 C-78.0075 91.351875 -77.265 91.57875 -76.5 91.8125 C-74.51223745 92.31134191 -74.51223745 92.31134191 -71.75 91.125 C-70.265 91.62 -70.265 91.62 -68.75 92.125 C-68.255 90.64 -68.255 90.64 -67.75 89.125 C-48.67098549 85.92931262 -32.44481718 83.88310457 -14.625 93.0625 C-13.93535156 93.40990234 -13.24570312 93.75730469 -12.53515625 94.11523438 C-4.80140103 98.04126116 -4.80140103 98.04126116 -1.75 100.125 C-1.75 100.785 -1.75 101.445 -1.75 102.125 C-0.87988281 102.51171875 -0.87988281 102.51171875 0.0078125 102.90625 C8.96864399 107.77694586 14.86846196 117.7975909 18.25 127.125 C24.4424554 148.34410177 22.01982747 171.37894025 12.25 191.125 C10.13288623 194.6485532 7.7515633 197.86814672 5.25 201.125 C4.67894531 201.970625 4.10789062 202.81625 3.51953125 203.6875 C-3.885888 214.55088688 -13.68926371 224.91147633 -24.75 232.125 C-25.58789062 232.69476563 -26.42578125 233.26453125 -27.2890625 233.8515625 C-42.65072565 244.02055078 -60.22963167 248.9476308 -77.75 254.125 C-80.28278918 254.8742071 -82.81552298 255.62357869 -85.34765625 256.375 C-87.03973362 256.87713115 -88.73244993 257.37711392 -90.42578125 257.875 C-94.3334491 259.03821276 -98.15953731 260.25502172 -101.94921875 261.76171875 C-105.44345637 263.10316253 -108.68589286 263.6704978 -112.4375 263.9375 C-113.51386719 264.02644531 -114.59023437 264.11539062 -115.69921875 264.20703125 C-118.8995028 264.12098008 -120.9118791 263.56913219 -123.75 262.125 C-128.42748104 257.10103889 -129.07304771 251.70375419 -129 245.0625 C-129.00773438 244.35544922 -129.01546875 243.64839844 -129.0234375 242.91992188 C-129.00910457 239.10377981 -128.71320902 236.40462437 -126.75 233.125 C-126.62625 232.17625 -126.5025 231.2275 -126.375 230.25 C-125.61389533 226.44447663 -124.0124985 224.25257145 -121.75 221.125 C-121.3375 220.320625 -120.925 219.51625 -120.5 218.6875 C-113.71442466 208.75147896 -103.41489163 205.86593511 -92.453125 202.3984375 C-90.75 202.125 -90.75 202.125 -87.75 203.125 C-87.42 202.465 -87.09 201.805 -86.75 201.125 C-84.6875 200.5 -84.6875 200.5 -82.75 200.125 C-82.75 199.795 -82.75 199.465 -82.75 199.125 C-81.89277344 199.01542969 -81.03554687 198.90585937 -80.15234375 198.79296875 C-73.83280657 197.91664059 -68.56860073 196.81879663 -62.75 194.125 C-59.91225078 193.34924136 -57.06715463 192.64075695 -54.203125 191.96875 C-51.55941727 191.05944925 -50.61628339 190.13484365 -48.75 188.125 C-48.1003125 187.80660156 -47.450625 187.48820313 -46.78125 187.16015625 C-41.14387794 184.28726472 -36.74582346 177.71520559 -34.40625 171.95703125 C-33.50887599 168.08443506 -33.35588717 164.34092457 -33.3125 160.375 C-33.30226807 159.641604 -33.29203613 158.90820801 -33.28149414 158.15258789 C-33.3551985 153.64115941 -33.92196037 150.67127192 -36.75 147.125 C-41.75129125 142.90516051 -47.06499579 141.35051564 -53.52734375 141.6171875 C-56.66633465 142.11181637 -59.55308544 142.95041186 -62.57226562 143.92651367 C-71.34134363 146.73910696 -79.46744528 147.64721576 -88.6875 147.6875 C-89.81220703 147.70167969 -90.93691406 147.71585938 -92.09570312 147.73046875 C-103.67165989 147.59371793 -112.55641307 144.01117687 -121.75 137.125 C-122.801875 136.361875 -123.85375 135.59875 -124.9375 134.8125 C-128.55893696 131.35201579 -131.32272076 127.50615296 -133.75 123.125 C-133.75 122.465 -133.75 121.805 -133.75 121.125 C-134.41 121.125 -135.07 121.125 -135.75 121.125 C-136.40077296 119.08490245 -137.04539824 117.04284331 -137.6875 115 C-138.04714844 113.86304688 -138.40679687 112.72609375 -138.77734375 111.5546875 C-143.74237242 94.04747797 -142.17079882 74.59881661 -134.75 58.125 C-134.2859375 57.07570312 -133.821875 56.02640625 -133.34375 54.9453125 C-131.81327812 51.72572227 -130.28491381 48.8187362 -128.10546875 45.9921875 C-126.55417772 44.23980244 -126.55417772 44.23980244 -126.75 42.125 C-126.09 42.125 -125.43 42.125 -124.75 42.125 C-124.523125 41.42375 -124.29625 40.7225 -124.0625 40 C-122.47791452 36.52900323 -120.2969339 33.91414952 -117.75 31.125 C-116.5125 29.76375 -116.5125 29.76375 -115.25 28.375 C-112.75 26.125 -112.75 26.125 -110.0625 25.0625 C-107.19423277 23.89968896 -106.98251825 22.85414754 -105.75 20.125 C-104.76 19.795 -103.77 19.465 -102.75 19.125 C-102.028125 18.526875 -101.30625 17.92875 -100.5625 17.3125 C-91.14709354 9.98940609 -78.55444329 6.84394183 -66.75 7.125 C-66.42 6.465 -66.09 5.805 -65.75 5.125 C-64.1 5.455 -62.45 5.785 -60.75 6.125 C-60.75 5.465 -60.75 4.805 -60.75 4.125 C-59.1 4.125 -57.45 4.125 -55.75 4.125 C-55.75 3.795 -55.75 3.465 -55.75 3.125 C-54.85796875 3.06441406 -53.9659375 3.00382812 -53.046875 2.94140625 C-51.29117188 2.81572266 -51.29117188 2.81572266 -49.5 2.6875 C-48.33984375 2.60628906 -47.1796875 2.52507812 -45.984375 2.44140625 C-43.42217101 2.19075586 -41.2128342 1.80440254 -38.75 1.125 C-36.41905466 0.7753582 -34.08595238 0.43945513 -31.75 0.125 C-31.75 -0.205 -31.75 -0.535 -31.75 -0.875 C-29.77 -0.875 -27.79 -0.875 -25.75 -0.875 C-25.75 -1.205 -25.75 -1.535 -25.75 -1.875 C-6.60016136 -4.87889626 -6.60016136 -4.87889626 0 0 Z M-17.75 -1.875 C-13.75 -0.875 -13.75 -0.875 -13.75 -0.875 Z M-67.75 90.125 C-63.75 91.125 -63.75 91.125 -63.75 91.125 Z " fill="#7821FC" transform="translate(310.75,118.875)"/>
<path d="M0 0 C2.1796875 0.19921875 2.1796875 0.19921875 4.875 0.6875 C5.75929688 0.83574219 6.64359375 0.98398438 7.5546875 1.13671875 C10.72716363 2.25671432 11.38338379 3.036063 13 6 C13.4593466 9.05526399 13.43743914 12.0896623 13.43237305 15.17480469 C13.44766052 16.56556465 13.44766052 16.56556465 13.46325684 17.98442078 C13.49343461 21.04696661 13.50266018 24.10919989 13.51171875 27.171875 C13.52856187 29.29609216 13.54671161 31.42029933 13.56611633 33.54449463 C13.61366218 39.13398111 13.64344199 44.72342709 13.66955566 50.31304932 C13.69933797 56.01737466 13.74587632 61.72156041 13.79101562 67.42578125 C13.87710097 78.61711455 13.94442307 89.80847653 14 101 C14.40208176 100.45753128 14.80416351 99.91506256 15.21842957 99.3561554 C16.01752495 98.28327522 16.01752495 98.28327522 16.83276367 97.1887207 C17.35859543 96.48125198 17.88442719 95.77378326 18.42619324 95.0448761 C20.57235904 92.25632336 22.89593501 89.74726884 25.3125 87.1875 C30.46828189 81.65842896 35.26864783 75.89741236 40 70 C41.62237265 67.99786814 43.24733294 65.99783006 44.875 64 C45.59429687 63.113125 46.31359375 62.22625 47.0546875 61.3125 C48.63597289 59.43273906 50.23085565 57.69837858 52 56 C52.99 55.01 52.99 55.01 54 54 C54.66 54.33 55.32 54.66 56 55 C56 54.34 56 53.68 56 53 C64.415 52.505 64.415 52.505 73 52 C73 51.67 73 51.34 73 51 C76.96 51 80.92 51 85 51 C85 50.67 85 50.34 85 50 C88.96 50 92.92 50 97 50 C97 49.67 97 49.34 97 49 C99.43922361 49.08700798 101.87478414 49.19386002 104.3125 49.3125 C105.00279297 49.33505859 105.69308594 49.35761719 106.40429688 49.38085938 C111.51007173 49.65218074 111.51007173 49.65218074 113.92578125 51.3671875 C115.61533099 53.93530311 115.87999357 55.93983615 116 59 C113.84434762 64.51500847 110.29973603 68.20223939 106.25 72.375 C104.97699943 73.71141602 103.70485286 75.04864607 102.43359375 76.38671875 C101.83144043 77.01755371 101.22928711 77.64838867 100.60888672 78.29833984 C98.25018603 80.79305059 96.00838423 83.37886491 93.76953125 85.98046875 C91.39115503 88.6948628 88.94487646 91.34569125 86.5 94 C82.86197963 97.95175903 79.27119814 101.93637613 75.75390625 105.99609375 C72.91661579 109.23780869 70.01186217 112.41857428 67.11328125 115.60546875 C65.63169396 117.28423586 64.21668607 119.02301655 62.85546875 120.80078125 C62.24316406 121.52652344 61.63085938 122.25226563 61 123 C60.34 123 59.68 123 59 123 C59.12568817 127.14770976 60.69831157 128.92725389 63.5625 131.6875 C64.20316406 132.26886719 64.84382813 132.85023438 65.50390625 133.44921875 C67 135 67 135 67 137 C67.8353125 137.3403125 67.8353125 137.3403125 68.6875 137.6875 C73.82591917 140.60390007 77.27057021 145.52468425 81 150 C84.24719084 153.29943983 87.55921611 156.53130047 90.87109375 159.765625 C92.72677687 161.5935324 94.58223908 163.42166408 96.4375 165.25 C97.8306543 166.60544922 97.8306543 166.60544922 99.25195312 167.98828125 C112.0103628 180.61048014 112.0103628 180.61048014 113.7265625 188.22265625 C113.38097544 197.88580222 110.95086457 203.8858112 103.85546875 210.52734375 C96.93953145 216.01641398 88.32399822 216.18611344 79.875 216.25 C78.84052734 216.2809375 78.84052734 216.2809375 77.78515625 216.3125 C71.1848287 216.36298052 67.75596614 213.8631795 63 209.625 C62.0409375 208.77808594 62.0409375 208.77808594 61.0625 207.9140625 C58.64304538 205.66873529 56.32297796 203.34556247 54 201 C51.00273359 197.97644178 48.00190049 194.95645675 45 191.9375 C44.2059375 191.13505859 43.411875 190.33261719 42.59375 189.50585938 C38.8738807 185.77049062 35.20261654 182.19900662 31 179 C29.31237149 177.3545622 27.6459651 175.68711423 26 174 C25.13375 173.13375 24.2675 172.2675 23.375 171.375 C22.199375 170.199375 22.199375 170.199375 21 169 C20.401875 168.443125 19.80375 167.88625 19.1875 167.3125 C18 166 18 166 18 164 C17.34 164 16.68 164 16 164 C16 163.34 16 162.68 16 162 C15.01 162 14.02 162 13 162 C13.01571045 163.25022949 13.0314209 164.50045898 13.04760742 165.78857422 C13.10227184 170.46640475 13.13648195 175.14420755 13.16479492 179.82226562 C13.17979884 181.83956667 13.20020855 183.85683556 13.22631836 185.87402344 C13.26307353 188.78849263 13.27981068 191.70252726 13.29296875 194.6171875 C13.30845261 195.50614716 13.32393646 196.39510681 13.33988953 197.31100464 C13.34179658 204.55008027 12.21311848 211.4754039 8.3125 217.6875 C-1.15204994 227.15204994 -8.80465591 232.05165001 -22.4375 232.3125 C-24.35369141 232.36857422 -24.35369141 232.36857422 -26.30859375 232.42578125 C-31.32158181 231.84756358 -34.34441515 229.77384091 -37.75 226.125 C-40.88853273 220.78949436 -41.28885529 215.60646952 -41.25396729 209.54298401 C-41.25708727 208.70566819 -41.26020725 207.86835236 -41.26342177 207.00566334 C-41.27138175 204.20756079 -41.2650859 201.40967632 -41.25878906 198.61157227 C-41.26149983 196.60236484 -41.26506125 194.59315841 -41.26940918 192.58395386 C-41.27852579 187.13150891 -41.27499174 181.67913966 -41.26865101 176.22669339 C-41.26358658 170.51912307 -41.26828376 164.81155922 -41.27142334 159.10398865 C-41.27506198 149.51812578 -41.27026685 139.93229373 -41.26074219 130.34643555 C-41.24986095 119.26742633 -41.25338124 108.18849073 -41.264395 97.1094833 C-41.27347446 87.59510022 -41.27474982 78.08073928 -41.26951766 68.56635326 C-41.2664012 62.8848509 -41.26597969 57.20338314 -41.27259064 51.52188301 C-41.27837292 46.1793168 -41.27435096 40.83684538 -41.26280212 35.4942894 C-41.26016014 33.53474396 -41.26091274 31.57519052 -41.26532745 29.61564827 C-41.27080259 26.93832476 -41.26392482 24.26130393 -41.25396729 21.58399963 C-41.25842873 20.81083784 -41.26289017 20.03767605 -41.26748681 19.24108511 C-41.23318444 14.47713699 -40.71341885 10.47100453 -39 6 C-36 4.5 -36 4.5 -33 4 C-32.34 4.33 -31.68 4.66 -31 5 C-31 4.34 -31 3.68 -31 3 C-28.98177083 3.03255208 -26.96354167 3.06510417 -24.9453125 3.09765625 C-22.91814596 3.12649242 -22.91814596 3.12649242 -21 2 C-19.50070956 1.95386799 -17.99951954 1.96203748 -16.5 2 C-11.3027842 2.05295562 -6.1369589 1.84059327 -1 1 C-0.67 0.67 -0.34 0.34 0 0 Z " fill="#7821FC" transform="translate(391,104)"/>
<path d="M0 0 C5.13665991 1.30593049 8.33660442 3.75640445 11.13671875 8.27734375 C11.64847656 9.15519531 12.16023437 10.03304687 12.6875 10.9375 C13.86579717 12.7144701 15.05408467 14.48483897 16.25 16.25 C19.52126708 21.12683383 22.66048578 26.0689009 25.75 31.0625 C28.51296024 35.52731392 31.31373653 39.91820431 34.375 44.1875 C45.07434989 59.31943771 45.07434989 59.31943771 45.3125 65.5 C44.6875 68.9375 44.6875 68.9375 43.59765625 70.640625 C40.64002708 72.64866771 38.01583452 72.22176609 34.5 72.125 C33.22769531 72.09792969 31.95539063 72.07085937 30.64453125 72.04296875 C29.18080078 71.99076172 29.18080078 71.99076172 27.6875 71.9375 C27.69194122 73.12163483 27.69638245 74.30576965 27.70095825 75.52578735 C27.74166298 86.73511687 27.77156014 97.94443122 27.79112434 109.15381813 C27.80152089 114.9154025 27.81560395 120.67692677 27.83837891 126.43847656 C27.86025542 132.00817829 27.87209961 137.57782253 27.87725449 143.14756393 C27.88092383 145.26281004 27.88808841 147.37805334 27.89896011 149.49327469 C28.04065995 178.22940817 28.04065995 178.22940817 22.6875 191.9375 C22.41164063 192.74703125 22.13578125 193.5565625 21.8515625 194.390625 C19.51141746 200.91102913 16.19397929 205.71853386 11.6875 210.9375 C10.64722656 212.19433594 10.64722656 212.19433594 9.5859375 213.4765625 C-0.04534725 224.74142205 -12.69964634 232.91415097 -27.3125 235.9375 C-28.21484375 236.2675 -29.1171875 236.5975 -30.046875 236.9375 C-33.76590897 238.07634294 -37.32820318 238.47490217 -41.1875 238.6875 C-42.2871106 238.74997925 -42.2871106 238.74997925 -43.40893555 238.8137207 C-52.1898475 239.18471869 -62.46381822 239.17410027 -70.3125 234.9375 C-71.71994346 234.60415813 -73.13807762 234.31356725 -74.5625 234.0625 C-79.29492821 233.07109114 -83.08569368 231.21930182 -87.3125 228.9375 C-87.95960938 228.63972656 -88.60671875 228.34195313 -89.2734375 228.03515625 C-94.92754866 225.43158333 -99.5174932 221.87369961 -104.3125 217.9375 C-105.34375 217.133125 -106.375 216.32875 -107.4375 215.5 C-117.9843505 206.0995463 -126.35255634 194.16401644 -131.3125 180.9375 C-131.3125 179.9475 -131.3125 178.9575 -131.3125 177.9375 C-131.9725 177.6075 -132.6325 177.2775 -133.3125 176.9375 C-135.84112676 166.60516002 -135.63868181 155.7922067 -135.6484375 145.2265625 C-135.65488399 143.561797 -135.66161364 141.89703257 -135.66860962 140.23226929 C-135.68048219 136.77151865 -135.68430012 133.31086717 -135.68310547 129.85009766 C-135.68290105 125.43203309 -135.71037366 121.01460287 -135.74464989 116.59668922 C-135.7669388 113.17016708 -135.77094266 109.74379835 -135.76988602 106.31721115 C-135.77223239 104.68822385 -135.7810011 103.0592317 -135.79655075 101.43031693 C-135.94284158 84.549033 -135.94284158 84.549033 -129.671875 76.94921875 C-121.7163565 70.40329455 -114.55838304 69.1247954 -104.3125 69.9375 C-96.17313555 71.65928863 -90.244458 76.36355234 -85.44140625 82.97265625 C-83.09379541 87.05863636 -83.18411035 90.9963562 -83.1706543 95.64282227 C-83.16717987 96.30848709 -83.16370544 96.97415192 -83.16012573 97.6599884 C-83.15278865 99.10262281 -83.14743238 100.54526836 -83.14383507 101.98791695 C-83.13663465 104.28068649 -83.12093883 106.57324632 -83.10249329 108.86595154 C-83.05021225 115.3839926 -83.00213474 121.90192008 -82.98657227 128.42016602 C-82.97641746 132.41264436 -82.94690214 136.40459523 -82.90525246 140.39686394 C-82.8930395 141.90887373 -82.88780322 143.42095837 -82.89005089 144.93301582 C-82.90226927 155.84165241 -81.888036 166.41525097 -75.00390625 175.37109375 C-68.64915128 181.25621325 -60.86705842 184.08044565 -52.375 184.125 C-51.14910156 184.13917969 -49.92320312 184.15335938 -48.66015625 184.16796875 C-44.15780366 183.85800515 -42.20932585 182.65933544 -38.75 179.875 C-36.3125 177.9375 -36.3125 177.9375 -33.3125 176.9375 C-32.60539322 175.28758418 -31.94687344 173.6167238 -31.3125 171.9375 C-30.64027908 171.08686478 -29.96805817 170.23622955 -29.27546692 169.3598175 C-26.69105562 164.85404823 -26.76863774 161.46635027 -26.8425293 156.36791992 C-26.8403389 155.42255371 -26.8381485 154.4771875 -26.83589172 153.50317383 C-26.8335876 150.39107822 -26.85979105 147.27993753 -26.88671875 144.16796875 C-26.89164318 142.00417888 -26.89494172 139.84038474 -26.89668274 137.67658997 C-26.90431391 133.14989546 -26.92485368 128.62351814 -26.95581055 124.09692383 C-26.9955031 118.28140295 -27.01343893 112.46608783 -27.02311993 106.65044689 C-27.03306731 101.11459275 -27.05296955 95.57878934 -27.07421875 90.04296875 C-27.0776145 88.98065725 -27.08101025 87.91834576 -27.0845089 86.823843 C-27.09602604 83.8358688 -27.11453486 80.84802843 -27.13549805 77.86010742 C-27.13818695 76.96610733 -27.14087585 76.07210724 -27.14364624 75.15101624 C-26.79031981 71.22940211 -26.79031981 71.22940211 -28.3125 67.9375 C-31.6079046 67.51990052 -34.90634158 67.16517913 -38.2109375 66.828125 C-41.3125 65.9375 -41.3125 65.9375 -43.203125 63.5859375 C-44.64204683 60.15076497 -44.72232353 57.62591174 -44.3125 53.9375 C-42.94897461 52.45263672 -42.94897461 52.45263672 -41.3125 50.9375 C-40.43103731 49.75251715 -39.57922526 48.54506119 -38.75390625 47.3203125 C-38.28533203 46.63066406 -37.81675781 45.94101563 -37.33398438 45.23046875 C-36.85251953 44.51503906 -36.37105469 43.79960937 -35.875 43.0625 C-32.8276434 38.54698374 -29.73273967 34.18206805 -26.3125 29.9375 C-24.73058877 27.5570642 -23.20258543 25.14895691 -21.6796875 22.73046875 C-21.22851562 22.13878906 -20.77734375 21.54710938 -20.3125 20.9375 C-19.6525 20.9375 -18.9925 20.9375 -18.3125 20.9375 C-17.10621992 18.60535852 -16.1470262 16.44107861 -15.3125 13.9375 C-14.6525 13.9375 -13.9925 13.9375 -13.3125 13.9375 C-13.20679688 13.36257812 -13.10109375 12.78765625 -12.9921875 12.1953125 C-12.20968835 9.59597624 -11.08211304 7.96440662 -9.4375 5.8125 C-8.92445313 5.12929687 -8.41140625 4.44609375 -7.8828125 3.7421875 C-5.3316776 0.8102862 -3.92119705 -0.07398485 0 0 Z " fill="#7821FC" transform="translate(898.3125,89.0625)"/>
<path d="M0 0 C0.92039062 -0.03673828 1.84078125 -0.07347656 2.7890625 -0.11132812 C8.60713731 -0.14873003 11.94190702 0.74890883 16.27197266 4.68383789 C20.1335225 10.04555317 19.90728658 15.98502278 19.86791992 22.29638672 C19.86981827 23.25976959 19.87171661 24.22315247 19.87367249 25.21572876 C19.87736831 28.39129857 19.86669076 31.5666381 19.85546875 34.7421875 C19.85427589 36.95647149 19.85382401 39.17075599 19.8540802 41.38504028 C19.85251725 46.02349013 19.84424335 50.66186259 19.83081055 55.30029297 C19.813841 61.23394293 19.80999583 67.16750774 19.81075573 73.10117912 C19.8104832 77.67376512 19.80498842 82.24633266 19.79775429 86.81891251 C19.79458086 89.00609319 19.79260332 91.19327597 19.79186058 93.38045883 C19.78968179 96.44361649 19.78090389 99.50668571 19.77026367 102.56982422 C19.77071686 103.46670959 19.77117004 104.36359497 19.77163696 105.28765869 C19.72034864 115.43402678 18.88150987 126.12981278 12.625 134.5625 C11.965 134.5625 11.305 134.5625 10.625 134.5625 C10.955 135.5525 11.285 136.5425 11.625 137.5625 C8.06870407 143.78842728 3.54057314 149.47793759 -2.375 153.5625 C-3.035 153.5625 -3.695 153.5625 -4.375 153.5625 C-4.375 154.2225 -4.375 154.8825 -4.375 155.5625 C-5.365 155.5625 -6.355 155.5625 -7.375 155.5625 C-7.375 156.2225 -7.375 156.8825 -7.375 157.5625 C-22.80980218 165.52296884 -40.50909562 166.91431977 -57.375 162.5625 C-68.61404229 158.21951205 -77.79155106 151.67540906 -84.375 141.5625 C-84.9009375 140.77746094 -85.426875 139.99242187 -85.96875 139.18359375 C-89.59386452 133.50602468 -91.81797775 128.09993118 -93.375 121.5625 C-93.57996094 120.80710937 -93.78492188 120.05171875 -93.99609375 119.2734375 C-95.67546836 112.34746499 -97.66349284 100.13948568 -94.375 93.5625 C-94.24590134 92.23134937 -94.14592448 90.89729168 -94.0625 89.5625 C-92.94318559 79.24176272 -87.62424917 70.67240857 -81.375 62.5625 C-80.385 61.9025 -79.395 61.2425 -78.375 60.5625 C-77.88 59.7375 -77.385 58.9125 -76.875 58.0625 C-75.375 55.5625 -75.375 55.5625 -72.375 53.5625 C-71.385 53.5625 -70.395 53.5625 -69.375 53.5625 C-69.375 52.9025 -69.375 52.2425 -69.375 51.5625 C-68.4159375 51.129375 -68.4159375 51.129375 -67.4375 50.6875 C-65.22293921 49.73426549 -65.22293921 49.73426549 -64.375 47.5625 C-62.03909621 46.79975591 -59.75284497 46.15993391 -57.375 45.5625 C-56.19035156 45.21703125 -55.00570312 44.8715625 -53.78515625 44.515625 C-48.81609793 43.27896332 -43.97193957 43.26862391 -38.875 43.3125 C-37.52728516 43.30089844 -37.52728516 43.30089844 -36.15234375 43.2890625 C-30.5569514 43.30535185 -25.74427941 43.98182429 -20.375 45.5625 C-18.93292059 42.67834117 -19.28105113 40.14528472 -19.3125 36.9375 C-19.32152344 35.74898438 -19.33054687 34.56046875 -19.33984375 33.3359375 C-19.35144531 32.42070312 -19.36304688 31.50546875 -19.375 30.5625 C-19.045 30.5625 -18.715 30.5625 -18.375 30.5625 C-18.39071045 29.92223877 -18.4064209 29.28197754 -18.42260742 28.62231445 C-18.48517115 25.70663369 -18.52405808 22.79109445 -18.5625 19.875 C-18.58763672 18.86759766 -18.61277344 17.86019531 -18.63867188 16.82226562 C-18.7333874 7.25599764 -18.7333874 7.25599764 -15.375 3.5625 C-10.85479791 -0.37752289 -5.69968903 0.01187435 0 0 Z M-18.375 36.5625 C-17.375 38.5625 -17.375 38.5625 -17.375 38.5625 Z M-91.375 80.5625 C-90.375 82.5625 -90.375 82.5625 -90.375 82.5625 Z M-50.4375 84.625 C-51.076875 85.264375 -51.71625 85.90375 -52.375 86.5625 C-52.375 87.2225 -52.375 87.8825 -52.375 88.5625 C-53.035 88.5625 -53.695 88.5625 -54.375 88.5625 C-58.20378539 96.13460681 -59.60326947 103.10226463 -58.375 111.5625 C-56.34083145 117.22315756 -52.97753805 121.68667848 -48.375 125.5625 C-44.87404689 126.72948437 -42.0627768 126.69518287 -38.375 126.6875 C-37.1375 126.69007813 -35.9 126.69265625 -34.625 126.6953125 C-31.36269227 126.71241302 -31.36269227 126.71241302 -28.375 125.5625 C-28.375 124.9025 -28.375 124.2425 -28.375 123.5625 C-27.776875 123.294375 -27.17875 123.02625 -26.5625 122.75 C-23.06411463 120.85087651 -21.64154546 119.36213639 -20.375 115.5625 C-19.715 115.2325 -19.055 114.9025 -18.375 114.5625 C-18.22814815 111.22964074 -18.14042352 107.89762655 -18.0625 104.5625 C-17.9996582 103.16064453 -17.9996582 103.16064453 -17.93554688 101.73046875 C-17.81875529 95.04999035 -19.01893449 90.70478221 -23.375 85.5625 C-32.02175204 78.09485051 -41.2791736 78.45714752 -50.4375 84.625 Z M-20.375 115.5625 C-19.375 117.5625 -19.375 117.5625 -19.375 117.5625 Z " fill="#2DBBED" transform="translate(703.375,322.4375)"/>
<path d="M0 0 C0.75410156 0.00322266 1.50820313 0.00644531 2.28515625 0.00976562 C3.06246094 0.01814453 3.83976563 0.02652344 4.640625 0.03515625 C5.43339844 0.03966797 6.22617187 0.04417969 7.04296875 0.04882812 C8.99222008 0.0605706 10.94143238 0.07850479 12.890625 0.09765625 C12.890625 0.75765625 12.890625 1.41765625 12.890625 2.09765625 C14.128125 2.12859375 14.128125 2.12859375 15.390625 2.16015625 C21.07236878 3.68205191 25.02325068 7.56923639 28.48089695 12.25088024 C30.22474526 15.77237187 30.31147639 18.78948271 30.27830505 22.63044739 C30.28369059 23.38044862 30.28907613 24.13044985 30.29462487 24.90317839 C30.30891234 27.41193838 30.30179888 29.92017131 30.29467773 32.42895508 C30.30038099 34.22950159 30.30734508 36.03004448 30.31547546 37.83058167 C30.33342943 42.71914865 30.33223396 47.60753635 30.32653308 52.49612641 C30.32344366 56.5790307 30.32953112 60.66190042 30.33557183 64.74479979 C30.34962356 74.37945628 30.34805111 84.01402411 30.33666992 93.64868164 C30.32519508 103.5819958 30.33925228 113.51503976 30.3660664 123.4483183 C30.3882357 131.98097693 30.39485778 140.51355083 30.38898998 149.04623622 C30.38562131 154.14042069 30.38802929 159.23443208 30.40524101 164.3285923 C30.42072702 169.12133193 30.41673616 173.91367216 30.39793587 178.7063961 C30.3942542 180.46233927 30.39734612 182.21831213 30.40782166 183.97422791 C30.50445459 201.51561403 30.50445459 201.51561403 24.06640625 209.3046875 C23.45152344 209.83449219 22.83664062 210.36429688 22.203125 210.91015625 C21.60113281 211.45285156 20.99914062 211.99554688 20.37890625 212.5546875 C13.71687315 216.68577553 6.91064349 217.58391153 -0.796875 217.47265625 C-1.61220703 217.48425781 -2.42753906 217.49585938 -3.26757812 217.5078125 C-8.28966311 217.48345315 -11.76484017 216.86713313 -16.109375 214.09765625 C-22.18607012 207.87964264 -24.57247303 201.96230251 -24.49705505 193.40028381 C-24.50244059 192.65674084 -24.50782613 191.91319786 -24.51337487 191.14712328 C-24.52760625 188.67221067 -24.52056288 186.19783657 -24.51342773 183.72290039 C-24.51913383 181.94176302 -24.52609901 180.16062931 -24.53422546 178.37950134 C-24.55214534 173.55303347 -24.55099071 168.72674752 -24.54528308 163.9002564 C-24.54218961 159.8669582 -24.54828544 155.83369486 -24.55432183 151.80040163 C-24.56836154 142.28365288 -24.5668103 132.76699392 -24.55541992 123.25024414 C-24.5439384 113.44071917 -24.55801625 103.63146758 -24.5848164 93.82197863 C-24.60698526 85.39118943 -24.61360812 76.96048597 -24.60773998 68.5296697 C-24.60437216 63.49811247 -24.60677401 58.46673048 -24.62399101 53.43519783 C-24.639477 48.70316734 -24.63548623 43.97154136 -24.61668587 39.23952675 C-24.61300461 37.5061577 -24.61609494 35.77275856 -24.62657166 34.03941727 C-24.68275801 23.97248306 -24.69080616 16.4220222 -17.796875 8.41015625 C-12.10751489 3.51466034 -7.75481257 -0.05874858 0 0 Z M-23.109375 19.09765625 C-22.109375 22.09765625 -22.109375 22.09765625 -22.109375 22.09765625 Z " fill="#7921FD" transform="translate(629.109375,89.90234375)"/>
<path d="M0 0 C4.39880498 3.23393625 7.85445934 6.53603427 9.609375 11.80078125 C9.72581079 13.68669521 9.78600961 15.57628907 9.81469727 17.46557617 C9.8446151 19.2070417 9.8446151 19.2070417 9.87513733 20.98368835 C9.89184982 22.2368837 9.90856232 23.49007904 9.92578125 24.78125 C9.94656235 26.06437576 9.96734344 27.34750153 9.98875427 28.66950989 C10.04389406 32.0774094 10.09333889 35.48536866 10.14160156 38.89337158 C10.19187579 42.37232773 10.24753091 45.85119732 10.30273438 49.33007812 C10.41021689 56.15357076 10.51168377 62.97714161 10.609375 69.80078125 C11.104375 68.31578125 11.104375 68.31578125 11.609375 66.80078125 C12.76567192 65.64448433 13.92874322 64.49472004 15.109375 63.36328125 C16.97706584 61.41776996 18.34408155 59.36926721 19.484375 56.92578125 C21.23364684 53.62160111 23.21515308 50.49789221 26.609375 48.80078125 C26.91875 48.14078125 27.228125 47.48078125 27.546875 46.80078125 C28.609375 44.80078125 28.609375 44.80078125 31.609375 43.80078125 C31.856875 43.03765625 32.104375 42.27453125 32.359375 41.48828125 C34.37600426 37.15252835 38.2295409 35.72200735 42.546875 34.05078125 C44.63923462 33.7971619 46.62773418 33.78565277 48.734375 33.80078125 C52.4044021 34.0896067 52.4044021 34.0896067 54.609375 32.80078125 C61.14130926 31.98927822 65.27158038 32.98807081 70.609375 36.80078125 C73.14052742 40.59750988 73.43252411 43.08480427 73.40234375 47.59375 C71.76714198 54.20705371 66.45766881 59.2218371 61.609375 63.80078125 C60.949375 63.80078125 60.289375 63.80078125 59.609375 63.80078125 C59.37734375 64.51621094 59.1453125 65.23164063 58.90625 65.96875 C57.36443445 69.33566648 55.41416781 71.4384906 52.859375 74.11328125 C48.7773569 78.47926583 45.05145607 82.91750363 41.609375 87.80078125 C43.20711754 91.64081019 45.79270834 94.38314733 48.609375 97.36328125 C49.60946385 98.44002165 50.60946201 99.51684629 51.609375 100.59375 C52.60887507 101.66322786 53.60885621 102.73225637 54.609375 103.80078125 C60.15601765 109.72791006 65.49760163 115.75810351 70.546875 122.11328125 C71.23813477 122.97542236 71.23813477 122.97542236 71.94335938 123.85498047 C76.38134682 129.52409851 79.40851539 134.34213765 78.609375 141.80078125 C76.43423381 147.23863422 73.73134171 151.46301963 68.734375 154.61328125 C63.09381028 156.74225796 56.49594431 156.65909847 50.609375 155.80078125 C45.25750867 153.00607298 41.53903211 148.78795809 37.546875 144.36328125 C36.34846144 143.05134736 35.14925745 141.74013502 33.94921875 140.4296875 C33.37872803 139.80473389 32.8082373 139.17978027 32.22045898 138.53588867 C30.07819653 136.22871194 27.83912876 134.0231025 25.609375 131.80078125 C23.37904964 129.35324159 21.18402189 126.87699268 18.98828125 124.3984375 C16.27821884 121.43917395 13.46300121 118.62155996 10.609375 115.80078125 C10.59479248 116.73873535 10.58020996 117.67668945 10.56518555 118.64306641 C10.50390783 122.14347504 10.42971568 125.64312574 10.34692383 129.14306641 C10.31379574 130.65403029 10.28572645 132.16511432 10.26293945 133.67626953 C10.22916819 135.85631207 10.17684604 138.03526564 10.12109375 140.21484375 C10.09490967 141.52404785 10.06872559 142.83325195 10.04174805 144.18212891 C9.21405546 151.1093223 5.42026993 156.7369352 0.03515625 161.06640625 C-6.36953962 165.01203234 -14.15320422 165.02885039 -21.390625 163.80078125 C-25.12355453 161.49666268 -26.91814147 158.76534975 -27.93660259 154.53062725 C-28.41206702 151.67185937 -28.52522936 149.00114035 -28.53779602 146.10371399 C-28.54495132 144.96696732 -28.55210663 143.83022064 -28.55947876 142.6590271 C-28.56351212 140.80200668 -28.56351212 140.80200668 -28.56762695 138.9074707 C-28.57419815 137.5963179 -28.58076935 136.2851651 -28.58753967 134.9342804 C-28.60851434 130.59422007 -28.61893635 126.25415966 -28.62890625 121.9140625 C-28.63295637 120.41571726 -28.63707337 118.9173722 -28.64125633 117.41902733 C-28.66029407 110.37747962 -28.67452767 103.33594229 -28.6828683 96.29437381 C-28.69263362 88.18551801 -28.71894046 80.07693568 -28.75936919 71.96817619 C-28.78960014 65.687714 -28.80434379 59.40732991 -28.80764931 53.12679642 C-28.80999196 49.38170757 -28.81884909 45.63691135 -28.84411049 41.89190102 C-28.87187708 37.70811577 -28.86753884 33.5249362 -28.8605957 29.34106445 C-28.87981079 27.49922577 -28.87981079 27.49922577 -28.89941406 25.62017822 C-28.85162083 17.69908308 -28.14205836 9.95104835 -22.61121082 3.83218861 C-16.69170782 -1.65148983 -7.50055502 -3.76253332 0 0 Z " fill="#2DBBED" transform="translate(453.390625,339.19921875)"/>
<path d="M0 0 C5.04192159 3.0963525 8.09280649 6.21556142 10.50390625 11.7109375 C11.04782104 15.33807373 11.04782104 15.33807373 11.10888672 19.33105469 C11.12513218 20.08246986 11.14137764 20.83388504 11.15811539 21.60807037 C11.2071667 24.15807398 11.22695152 26.70742002 11.24609375 29.2578125 C11.27379241 31.13126251 11.30263294 33.00469592 11.33248901 34.87811279 C11.42660086 41.48888464 11.46829025 48.09962514 11.50390625 54.7109375 C11.51485069 56.61536118 11.51485069 56.61536118 11.52601624 58.55825806 C11.63492343 78.36695467 11.64791445 98.17532327 11.63247848 117.9842639 C11.62809147 124.25862831 11.63126418 130.53297291 11.63610375 136.80733609 C11.64064282 142.94244672 11.64128415 149.07754878 11.63866508 155.21266055 C11.63711787 158.84127446 11.63686715 162.46987485 11.64020157 166.09848785 C11.64363131 170.10376197 11.63887795 174.10898611 11.63330078 178.11425781 C11.63532501 179.29323639 11.63734924 180.47221497 11.63943481 181.68692017 C11.59623917 198.41180933 11.59623917 198.41180933 4.96484375 205.3125 C-1.19047553 211.01811559 -8.30643782 213.39955814 -16.62109375 213.8984375 C-25.04691535 213.49073645 -31.31344335 212.70607312 -37.83984375 207.05078125 C-43.90511789 198.48215104 -42.90352174 188.14923037 -42.83666992 178.16577148 C-42.83582273 176.39106765 -42.83630059 174.61636277 -42.83799744 172.84165955 C-42.83885522 168.04473172 -42.82126467 163.24803072 -42.80027556 158.45115542 C-42.78147251 153.43034448 -42.77975547 148.40952786 -42.77619934 143.38868713 C-42.76688952 133.89037449 -42.74229014 124.39216592 -42.71215087 114.89389902 C-42.67857374 104.07649847 -42.66211252 93.25909285 -42.64706457 82.44165313 C-42.61573964 60.19802326 -42.56299985 37.95448695 -42.49609375 15.7109375 C-41.83609375 15.7109375 -41.17609375 15.7109375 -40.49609375 15.7109375 C-40.72296875 15.1746875 -40.94984375 14.6384375 -41.18359375 14.0859375 C-41.6613244 10.45518452 -40.45479115 8.77140218 -38.49609375 5.7109375 C-28.37671784 -5.90334621 -13.0844753 -6.75724076 0 0 Z " fill="#7821FC" transform="translate(724.49609375,92.2890625)"/>
<path d="M0 0 C2.38796243 0.21808837 4.77598282 0.43554309 7.1640625 0.65234375 C8.85837402 0.81452393 8.85837402 0.81452393 10.58691406 0.97998047 C13.15476627 1.20360602 15.69814269 1.36096553 18.2734375 1.44140625 C26.86313411 1.73021384 31.78719158 3.36364617 37.87109375 9.42578125 C40.19266505 13.03545018 40.24448255 16.0364448 40.125 20.1875 C40.13208984 20.87779297 40.13917969 21.56808594 40.14648438 22.27929688 C40.08850452 26.9845855 39.06673574 30.21729009 36.6875 34.25 C35.6975 34.25 34.7075 34.25 33.6875 34.25 C33.44435059 34.88309082 33.20120117 35.51618164 32.95068359 36.16845703 C31.6875 38.25 31.6875 38.25 29.81884766 39.10888672 C22.11962825 40.57425827 14.83427267 40.07133803 7.0625 39.375 C5.77214844 39.27058594 4.48179687 39.16617188 3.15234375 39.05859375 C-0.00384942 38.80142245 -3.15841106 38.53162649 -6.3125 38.25 C-6.3125 39.57 -6.3125 40.89 -6.3125 42.25 C-5.37567383 42.279729 -5.37567383 42.279729 -4.41992188 42.31005859 C-1.55040619 42.40616932 1.31846547 42.51549487 4.1875 42.625 C5.16976562 42.6559375 6.15203125 42.686875 7.1640625 42.71875 C19.99493656 43.23198496 30.67144346 46.51235748 39.625 56.1875 C48.05719368 66.23372718 48.90067447 74.12741163 49 87 C49.04350586 88.85625 49.04350586 88.85625 49.08789062 90.75 C49.15042121 99.79288444 47.67420728 105.76993907 42.6875 113.25 C42.0275 113.25 41.3675 113.25 40.6875 113.25 C40.3575 113.91 40.0275 114.57 39.6875 115.25 C35.53583817 120.48470404 29.12057174 123.78866507 22.56079102 124.67016602 C19.25613512 124.77522948 15.99171395 124.73733553 12.6875 124.625 C10.99173828 124.60373047 10.99173828 124.60373047 9.26171875 124.58203125 C1.05677407 124.43463703 1.05677407 124.43463703 -1.3125 123.25 C-3.56435947 123.06129876 -5.82092478 122.92767353 -8.078125 122.8203125 C-9.45705927 122.74661619 -10.83596478 122.67238004 -12.21484375 122.59765625 C-14.38472167 122.48453465 -16.55454946 122.37536441 -18.72509766 122.27587891 C-20.82275077 122.17767866 -22.91896805 122.06267648 -25.015625 121.9453125 C-26.27020508 121.88359863 -27.52478516 121.82188477 -28.81738281 121.75830078 C-33.23355213 121.11604984 -36.72309699 119.75069215 -39.9921875 116.6640625 C-44.10528503 110.5078577 -44.27786568 104.47670945 -43.3125 97.25 C-41.99235039 92.58153796 -40.13369193 89.94622794 -36.4375 86.8125 C-31.12783123 84.15766561 -25.92808195 84.11252004 -20.0625 84.125 C-18.84046875 84.12242187 -17.6184375 84.11984375 -16.359375 84.1171875 C-13.3125 84.25 -13.3125 84.25 -11.3125 85.25 C-8.58238415 85.32034115 -5.86685718 85.24709374 -3.13671875 85.1875 C-0.3125 85.25 -0.3125 85.25 2.3046875 85.77734375 C5.5811918 86.42727329 8.42542356 85.82566055 11.6875 85.25 C12.0175 83.6 12.3475 81.95 12.6875 80.25 C12.09324219 80.23018066 11.49898437 80.21036133 10.88671875 80.18994141 C8.15325581 80.09376007 5.42046197 79.98446443 2.6875 79.875 C1.75292969 79.8440625 0.81835938 79.813125 -0.14453125 79.78125 C-11.91532857 79.28737039 -23.54009872 76.25615975 -32.25 67.8125 C-42.19370108 56.80426644 -45.04797873 46.01614986 -44.3125 31.25 C-43.58385451 24.83976434 -42.10226352 18.58136224 -38.3125 13.25 C-35.5625 11.375 -35.5625 11.375 -33.3125 10.25 C-33.3125 9.59 -33.3125 8.93 -33.3125 8.25 C-31.73046875 6.84765625 -31.73046875 6.84765625 -29.5 5.3125 C-28.79230469 4.80847656 -28.08460938 4.30445313 -27.35546875 3.78515625 C-18.23421512 -0.81645181 -10.00518189 -1.02604558 0 0 Z " fill="#2DBBED" transform="translate(781.3125,367.75)"/>
<path d="M0 0 C1.18078125 -0.02578125 2.3615625 -0.0515625 3.578125 -0.078125 C7.38323471 0.31550704 10.0276799 1.5276799 12.75 4.25 C12.8529994 6.0712736 12.88521646 7.89657263 12.89044189 9.7207489 C12.89615204 10.90826248 12.90186218 12.09577606 12.90774536 13.3192749 C12.90886322 14.63405823 12.90998108 15.94884155 12.91113281 17.3034668 C12.91575882 18.69287753 12.92078319 20.08228699 12.92617798 21.47169495 C12.93932877 25.25704134 12.94575265 29.04236998 12.95018864 32.82773566 C12.9531163 35.19218991 12.95722061 37.55663928 12.96169281 39.92109108 C12.97537753 47.31718095 12.98503824 54.71325969 12.9888947 62.10936135 C12.99337184 70.64952765 13.01089958 79.18953361 13.0398953 87.72965115 C13.06151931 94.32759068 13.07159944 100.92548514 13.07293582 107.52345973 C13.07398375 111.46515705 13.07988821 115.40670385 13.09775543 119.34836388 C13.11424765 123.0592033 13.11638615 126.76977928 13.10761642 130.48064232 C13.10648008 132.48814179 13.12019035 134.49563255 13.1343689 136.50308228 C13.12879974 137.70469498 13.12323059 138.90630768 13.11749268 140.14433289 C13.11895924 141.18466014 13.1204258 142.22498739 13.1219368 143.29683971 C12.43493925 148.75156722 9.5924915 153.4075085 5.75 157.25 C-2.59605033 162.63961244 -9.35356778 164.42559074 -19.25 164.5 C-20.27867187 164.5309375 -20.27867187 164.5309375 -21.328125 164.5625 C-27.4893024 164.60953189 -31.29935447 162.8459827 -36 159 C-41.52077584 152.25238508 -40.54064498 143.88620617 -40.5246582 135.59130859 C-40.52901041 134.20924099 -40.53419526 132.82717579 -40.54014587 131.44511414 C-40.55348803 127.70768142 -40.55412022 123.97035011 -40.55158257 120.23289824 C-40.55051025 117.10895245 -40.55540257 113.98502696 -40.560188 110.86108553 C-40.57126523 103.49233573 -40.57172973 96.12363691 -40.56567383 88.75488281 C-40.55962593 81.15726615 -40.57196974 73.5598343 -40.5932439 65.96224916 C-40.61085775 59.43128638 -40.61686186 52.90038246 -40.61360615 46.36939681 C-40.61179383 42.47198619 -40.61442497 38.57470763 -40.62832069 34.67731857 C-40.64089205 31.01481073 -40.63896175 27.35259166 -40.62590981 23.69008827 C-40.62241598 21.70751315 -40.63372524 19.72492923 -40.64547729 17.74238586 C-40.63846298 16.55923294 -40.63144867 15.37608002 -40.6242218 14.15707397 C-40.62438954 13.13099218 -40.62455729 12.10491039 -40.62473011 11.04773521 C-40.1868809 7.77875273 -39.20475168 5.88688456 -37.25 3.25 C-33.37120621 1.84932446 -29.33869736 2.16982946 -25.25 2.25 C-25.25 1.92 -25.25 1.59 -25.25 1.25 C-16.84004846 0.67355289 -8.42915742 0.16641969 0 0 Z M-8.25 1.25 C-4.25 2.25 -4.25 2.25 -4.25 2.25 Z " fill="#7821FC" transform="translate(569.25,147.75)"/>
<path d="M0 0 C15.05895649 -0.43861038 15.05895649 -0.43861038 21.25 4.375 C24.1307002 7.12475928 25.72975179 9.04603884 26.2784729 13.01342773 C26.29179657 13.72958252 26.30512024 14.4457373 26.31884766 15.18359375 C26.34862953 16.4275441 26.34862953 16.4275441 26.37901306 17.69662476 C26.39057938 18.60111359 26.40214569 19.50560242 26.4140625 20.4375 C26.43356461 21.40168854 26.45306671 22.36587708 26.47315979 23.35928345 C26.53444089 26.57276597 26.58048823 29.78624414 26.625 33 C26.66175398 35.25179218 26.69862135 37.50358252 26.7355957 39.75537109 C26.99585485 56.7132627 27.12765448 73.67351536 27.17523193 90.63330078 C27.18337766 93.28370217 27.19446199 95.93409623 27.20855713 98.58447266 C27.22639353 102.31940224 27.23045284 106.05409537 27.23046875 109.7890625 C27.23760391 110.89327545 27.24473907 111.9974884 27.25209045 113.13516235 C27.22627279 121.98817121 26.79413239 129.91828264 21 137 C14.88709384 142.92037369 9.7901473 143.45628034 1.47265625 143.421875 C-2.8550506 142.89612434 -4.86779118 141.66132134 -7.86328125 138.60546875 C-10.70565357 134.59098413 -10.17314849 130.00235078 -10.20532227 125.3059082 C-10.21522186 124.4178952 -10.22512146 123.5298822 -10.23532104 122.61495972 C-10.26693289 119.67692744 -10.29169229 116.73887899 -10.31640625 113.80078125 C-10.33697604 111.76482216 -10.35797252 109.72886733 -10.37937927 107.69291687 C-10.43459729 102.33193415 -10.4840078 96.97091291 -10.53222656 91.60986328 C-10.58244352 86.14026456 -10.63812858 80.67072185 -10.69335938 75.20117188 C-10.80093767 64.46749575 -10.90238341 53.73377102 -11 43 C-11.79237061 42.69924561 -12.58474121 42.39849121 -13.40112305 42.08862305 C-16.94976407 40.60216083 -18.16344745 38.94218008 -20.046875 35.6640625 C-23.14614233 27.00135627 -21.46382354 17.50622045 -18.16796875 9.171875 C-15.79906262 4.76681879 -12.61539067 2.8287397 -8 1 C-5.27568143 0.76438326 -2.74322159 0.85810923 0 1 C0 0.67 0 0.34 0 0 Z " fill="#2DBBEE" transform="translate(567,347)"/>
<path d="M0 0 C5.20165661 2.55354052 8.66122344 4.83248801 10.8125 10.40625 C12.18093865 15.40105107 12.78196057 20.55886802 13.4375 25.6875 C14.406875 25.77 15.37625 25.8525 16.375 25.9375 C23.19262616 26.9725647 28.67309639 29.18684517 32.9375 34.75 C36.14987969 39.39902727 36.72981645 43.03604869 36.4375 48.6875 C34.95924626 54.19735485 31.45006664 58.17807502 26.9375 61.5625 C21.50269685 63.30940101 16.09773882 62.91424547 10.4375 62.6875 C10.19515625 63.55632812 9.9528125 64.42515625 9.703125 65.3203125 C5.69252543 79.11060487 5.69252543 79.11060487 -0.5625 84.0625 C-5.57937012 86.64136628 -11.08866194 86.44119954 -16.5625 85.6875 C-22.256131 82.94235648 -26.10127149 78.49429453 -28.5625 72.6875 C-28.79296875 70.43359375 -28.79296875 70.43359375 -28.75 68.125 C-28.74355469 67.36058594 -28.73710938 66.59617187 -28.73046875 65.80859375 C-28.5625 63.6875 -28.5625 63.6875 -27.5625 60.6875 C-28.1915625 60.73390625 -28.820625 60.7803125 -29.46875 60.828125 C-35.78535772 61.09448798 -40.35279016 60.40183016 -45.5625 56.6875 C-49.71572765 52.42497688 -51.39831806 48.72335607 -51.875 42.8125 C-51.76050803 38.49451727 -50.61116733 35.48132838 -48.5625 31.6875 C-47.5725 31.0275 -46.5825 30.3675 -45.5625 29.6875 C-44.9025 29.0275 -44.2425 28.3675 -43.5625 27.6875 C-42.5725 27.3575 -41.5825 27.0275 -40.5625 26.6875 C-40.2325 26.0275 -39.9025 25.3675 -39.5625 24.6875 C-36.7265625 24.08984375 -36.7265625 24.08984375 -33.1875 23.625 C-29.8131055 23.17233732 -26.79400096 22.76466699 -23.5625 21.6875 C-23.8925 21.0275 -24.2225 20.3675 -24.5625 19.6875 C-25.34898348 13.26455156 -23.30586224 8.77059189 -19.5625 3.6875 C-12.74670138 -1.97896787 -8.32652241 -3.06766615 0 0 Z " fill="#2DBAED" transform="translate(897.5625,374.3125)"/>
<path d="M0 0 C6.40406813 4.31578505 7.37472928 14.38053635 9.1640625 21.52734375 C10.42171756 25.96539521 10.42171756 25.96539521 13.64331055 29.04663086 C14.34238525 29.32901611 15.04145996 29.61140137 15.76171875 29.90234375 C16.53580078 30.22783203 17.30988281 30.55332031 18.10742188 30.88867188 C18.91759766 31.21416016 19.72777344 31.53964844 20.5625 31.875 C26.56099975 34.31448767 31.91576117 36.70175755 36.875 40.9375 C37.77949521 43.89907576 37.24831595 45.79097983 36.875 48.9375 C35.885 48.9375 34.895 48.9375 33.875 48.9375 C33.545 49.2675 33.215 49.5975 32.875 49.9375 C30.94784911 50.77425084 29.00812863 51.58216222 27.0625 52.375 C24.99556917 53.21838834 22.93269132 54.07181335 20.875 54.9375 C20.10800781 55.17597656 19.34101562 55.41445312 18.55078125 55.66015625 C16.54938522 56.90939436 16.54938522 56.90939436 16.12890625 59.94140625 C15.71685949 64.57483006 15.76655524 69.22751112 15.8125 73.875 C15.81701172 74.74962891 15.82152344 75.62425781 15.82617188 76.52539062 C15.83785166 78.66279047 15.85578311 80.80015463 15.875 82.9375 C12.1328125 84.9765625 12.1328125 84.9765625 9.8125 84.625 C9.173125 84.398125 8.53375 84.17125 7.875 83.9375 C6.885 83.6075 5.895 83.2775 4.875 82.9375 C3.18626121 81.29320171 1.52194485 79.62365782 -0.125 77.9375 C-1.78393182 76.59455519 -3.44976605 75.26005312 -5.125 73.9375 C-5.62 73.380625 -6.115 72.82375 -6.625 72.25 C-8.73468973 70.40402149 -10.35138927 70.21526363 -13.125 69.9375 C-15.49629188 70.84525581 -15.49629188 70.84525581 -17.6875 72.3125 C-20.54262785 74.0839658 -22.86450021 75.17557268 -26.125 75.9375 C-27.46775169 76.92481742 -28.80232273 77.92344743 -30.125 78.9375 C-30.785 78.9375 -31.445 78.9375 -32.125 78.9375 C-32.125 79.5975 -32.125 80.2575 -32.125 80.9375 C-35 81.0625 -35 81.0625 -38.125 80.9375 C-40.89224344 78.17025656 -40.98676343 76.87724214 -41.125 72.9375 C-39.82934675 68.37485013 -38.01345877 64.01770668 -36.15234375 59.66015625 C-34.36220155 55.32218375 -33.52739841 52.43075446 -35.125 47.9375 C-37.41651077 45.31255218 -37.41651077 45.31255218 -40.125 42.9375 C-41.46327304 41.27479713 -42.79689785 39.60833819 -44.125 37.9375 C-44.888125 37.31875 -45.65125 36.7 -46.4375 36.0625 C-48.125 33.9375 -48.125 33.9375 -48.125 30.375 C-47.00690514 26.5315489 -46.46707296 25.89764314 -43.125 23.9375 C-40.6171875 23.4609375 -40.6171875 23.4609375 -38 23.3125 C-34.42589581 23.14167656 -34.42589581 23.14167656 -31.125 21.9375 C-28.33626807 21.70183251 -25.54891743 21.55548783 -22.75390625 21.4140625 C-19.77549851 20.87414312 -18.95125701 20.28474444 -17.125 17.9375 C-15.76136792 15.95803408 -14.43081356 13.9555755 -13.125 11.9375 C-12.3825 10.865 -11.64 9.7925 -10.875 8.6875 C-8.9460415 6.19954637 -8.9460415 6.19954637 -9.125 3.9375 C-5.99448162 1.25419854 -4.18236765 -0.08364735 0 0 Z M13.875 65.9375 C14.875 69.9375 14.875 69.9375 14.875 69.9375 Z M-38.125 78.9375 C-38.125 79.2675 -38.125 79.5975 -38.125 79.9375 C-36.475 79.9375 -34.825 79.9375 -33.125 79.9375 C-33.125 79.6075 -33.125 79.2775 -33.125 78.9375 C-34.775 78.9375 -36.425 78.9375 -38.125 78.9375 Z " fill="#2EB9EE" transform="translate(565.125,53.0625)"/>
<path d="M0 0 C2.19906976 0.00316518 4.39679873 -0.02035412 6.59570312 -0.0456543 C8.00715978 -0.04792729 9.41862001 -0.04863079 10.83007812 -0.04760742 C12.10109375 -0.05058838 13.37210937 -0.05356934 14.68164062 -0.05664062 C21.02983032 0.61415963 25.15306225 3.49706035 29.20507812 8.31567383 C31.80098711 12.9017797 32.69676396 16.29141829 31.77929688 21.40161133 C30.19911157 26.66889569 26.35133368 30.86046087 22.20507812 34.31567383 C18.2266348 35.19691294 14.33194497 35.46677278 10.26757812 35.60473633 C-2.71899176 36.19066611 -14.44877569 37.35983715 -26.68945312 41.92749023 C-33.4454287 44.43719243 -39.54066339 45.79254623 -46.48242188 42.81567383 C-51.32568067 40.41080311 -54.00979628 37.43189504 -55.79492188 32.31567383 C-56.80141141 26.60114233 -56.53194147 21.86206718 -53.54492188 16.81567383 C-49.94061299 11.8685832 -46.61722918 10.107153 -40.79492188 8.31567383 C-39.61929687 7.84129883 -38.44367188 7.36692383 -37.23242188 6.87817383 C-32.58546356 5.1053458 -27.79825383 4.1021021 -22.94335938 3.06176758 C-19.82577881 2.39301432 -19.82577881 2.39301432 -17.05908203 1.2878418 C-11.49049447 -0.37065601 -5.76395916 -0.0173846 0 0 Z " fill="#2DBBED" transform="translate(378.794921875,411.684326171875)"/>
<path d="M0 0 C0.33 0 0.66 0 1 0 C1 21.45 1 42.9 1 65 C0.67 65 0.34 65 0 65 C0 43.55 0 22.1 0 0 Z " fill="#7921FD" transform="translate(681,111)"/>
<path d="M0 0 C0.33 0 0.66 0 1 0 C1 7.26 1 14.52 1 22 C0.67 22 0.34 22 0 22 C0 14.74 0 7.48 0 0 Z " fill="#2DBCEE" transform="translate(555,420)"/>
<path d="M0 0 C0.33 0 0.66 0 1 0 C1 5.94 1 11.88 1 18 C0.67 18 0.34 18 0 18 C0 12.06 0 6.12 0 0 Z " fill="#2DBCEE" transform="translate(684,333)"/>
<path d="M0 0 C0.33 0 0.66 0 1 0 C1 4.29 1 8.58 1 13 C0.67 13 0.34 13 0 13 C0 8.71 0 4.42 0 0 Z " fill="#2DBCEE" transform="translate(555,405)"/>
<path d="M0 0 C0.33 0 0.66 0 1 0 C1 3.96 1 7.92 1 12 C0.67 12 0.34 12 0 12 C0 8.04 0 4.08 0 0 Z " fill="#2DBCEE" transform="translate(555,444)"/>
<path d="M0 0 C0.33 0 0.66 0 1 0 C1 3.63 1 7.26 1 11 C0.67 11 0.34 11 0 11 C0 7.37 0 3.74 0 0 Z " fill="#7921FD" transform="translate(681,205)"/>
<path d="M0 0 C0.33 0 0.66 0 1 0 C1 3.63 1 7.26 1 11 C0.67 11 0.34 11 0 11 C0 7.37 0 3.74 0 0 Z " fill="#7921FD" transform="translate(761,202)"/>
<path d="M0 0 C0.33 0 0.66 0 1 0 C1 2.97 1 5.94 1 9 C0.67 9 0.34 9 0 9 C0 6.03 0 3.06 0 0 Z " fill="#2DBCEE" transform="translate(555,464)"/>
<path d="M0 0 C0.33 0 0.66 0 1 0 C1 2.64 1 5.28 1 8 C0.67 8 0.34 8 0 8 C0 5.36 0 2.72 0 0 Z " fill="#7921FD" transform="translate(681,193)"/>
<path d="M0 0 C0.33 0 0.66 0 1 0 C1 2.64 1 5.28 1 8 C0.67 8 0.34 8 0 8 C0 5.36 0 2.72 0 0 Z " fill="#7921FD" transform="translate(681,179)"/>
<path d="M0 0 C0.33 0 0.66 0 1 0 C1 1.98 1 3.96 1 6 C0.67 6 0.34 6 0 6 C0 4.02 0 2.04 0 0 Z " fill="#7921FD" transform="translate(681,251)"/>
<path d="M0 0 C0.33 0 0.66 0 1 0 C1 1.98 1 3.96 1 6 C0.67 6 0.34 6 0 6 C0 4.02 0 2.04 0 0 Z " fill="#7921FD" transform="translate(681,232)"/>
<path d="M0 0 C0.33 0 0.66 0 1 0 C1 1.98 1 3.96 1 6 C0.67 6 0.34 6 0 6 C0 4.02 0 2.04 0 0 Z " fill="#7921FD" transform="translate(681,219)"/>
<path d="M0 0 C0.33 0 0.66 0 1 0 C1 1.98 1 3.96 1 6 C0.67 6 0.34 6 0 6 C0 4.02 0 2.04 0 0 Z " fill="#7921FD" transform="translate(761,215)"/>
<path d="M0 0 C0.33 0 0.66 0 1 0 C1 1.65 1 3.3 1 5 C0.67 5 0.34 5 0 5 C0 3.35 0 1.7 0 0 Z " fill="#2DBCEE" transform="translate(555,395)"/>
<path d="M0 0 C0.33 0 0.66 0 1 0 C1 1.65 1 3.3 1 5 C0.67 5 0.34 5 0 5 C0 3.35 0 1.7 0 0 Z " fill="#7921FD" transform="translate(681,271)"/>
<path d="M0 0 C4 1 4 1 4 1 Z " fill="#2DBCEE" transform="translate(382,410)"/>
<path d="M0 0 C1 4 1 4 1 4 Z " fill="#7921FD" transform="translate(681,240)"/>
<path d="M0 0 C1 4 1 4 1 4 Z " fill="#7921FD" transform="translate(761,233)"/>
<path d="M0 0 C1 4 1 4 1 4 Z " fill="#7921FD" transform="translate(761,222)"/>
<path d="M0 0 C1 4 1 4 1 4 Z " fill="#7921FD" transform="translate(761,193)"/>
<path d="M0 0 C1 4 1 4 1 4 Z " fill="#7921FD" transform="translate(761,187)"/>
<path d="M0 0 C4 1 4 1 4 1 Z " fill="#7921FD" transform="translate(630,89)"/>
<path d="M0 0 C0.99 0.495 0.99 0.495 2 1 C1.01 1.495 1.01 1.495 0 2 C0 1.34 0 0.68 0 0 Z " fill="#2DBCEE" transform="translate(746,377)"/>
<path d="" fill="#7921FD" transform="translate(0,0)"/>
<path d="" fill="#7921FD" transform="translate(0,0)"/>
<path d="M0 0 C2 1 2 1 2 1 Z " fill="#2DBCEE" transform="translate(754,451)"/>
<path d="" fill="#2DBCEE" transform="translate(0,0)"/>
<path d="M0 0 C2 1 2 1 2 1 Z " fill="#2DBCEE" transform="translate(564,347)"/>
<path d="M0 0 C2 1 2 1 2 1 Z " fill="#7921FD" transform="translate(1043,273)"/>
<path d="" fill="#7921FD" transform="translate(0,0)"/>
<path d="" fill="#7921FD" transform="translate(0,0)"/>
<path d="M0 0 C2 1 2 1 2 1 Z " fill="#7921FD" transform="translate(541,149)"/>
<path d="M0 0 C2 1 2 1 2 1 Z " fill="#7921FD" transform="translate(537,149)"/>
<path d="" fill="#7921FD" transform="translate(0,0)"/>
<path d="M0 0 C2 1 2 1 2 1 Z " fill="#7921FD" transform="translate(392,103)"/>
<path d="" fill="#000002" transform="translate(0,0)"/>
<path d="" fill="#7921FD" transform="translate(0,0)"/>
<path d="" fill="#2DBCEE" transform="translate(0,0)"/>
<path d="" fill="#2DBCEE" transform="translate(0,0)"/>
<path d="" fill="#2DBCEE" transform="translate(0,0)"/>
<path d="" fill="#2DBCEE" transform="translate(0,0)"/>
<path d="" fill="#2DBCEE" transform="translate(0,0)"/>
<path d="" fill="#2DBCEE" transform="translate(0,0)"/>
<path d="" fill="#2DBCEE" transform="translate(0,0)"/>
<path d="" fill="#2DBCEE" transform="translate(0,0)"/>
<path d="" fill="#7921FD" transform="translate(0,0)"/>
<path d="" fill="#000002" transform="translate(0,0)"/>
<path d="" fill="#7921FD" transform="translate(0,0)"/>
<path d="" fill="#7921FD" transform="translate(0,0)"/>
<path d="" fill="#7921FD" transform="translate(0,0)"/>
<path d="" fill="#7921FD" transform="translate(0,0)"/>
<path d="" fill="#7921FD" transform="translate(0,0)"/>
<path d="" fill="#7921FD" transform="translate(0,0)"/>
<path d="" fill="#2DBCEE" transform="translate(0,0)"/>
<path d="" fill="#7921FD" transform="translate(0,0)"/>
<path d="" fill="#7921FD" transform="translate(0,0)"/>
<path d="" fill="#7921FD" transform="translate(0,0)"/>
</svg>
